<svg width="197" height="14" viewBox="0 0 197 14" fill="none" xmlns="http://www.w3.org/2000/svg">
<path d="M13.8656 5.70134H7.14912V8.39261H11.0084C10.9464 8.77349 10.8071 9.14818 10.6031 9.48983C10.3693 9.88127 10.0804 10.1793 9.78422 10.4062C8.89706 11.086 7.86275 11.225 7.14443 11.225C5.32986 11.225 3.77944 10.0523 3.17923 8.45867C3.15501 8.40084 3.13893 8.3411 3.11934 8.28205C2.98671 7.87647 2.91424 7.44691 2.91424 7.00045C2.91424 6.5358 2.99272 6.09101 3.1358 5.67094C3.7002 4.01416 5.28558 2.7767 7.14573 2.7767C7.51988 2.7767 7.88018 2.82124 8.22186 2.91007C9.00273 3.11308 9.55508 3.5129 9.89354 3.82916L11.9357 1.82919C10.6935 0.690181 9.07406 1.7221e-09 7.14234 1.7221e-09C5.59805 -3.32379e-05 4.17229 0.481123 3.00393 1.29429C2.05643 1.95375 1.27935 2.83668 0.754906 3.86211C0.267103 4.81289 0 5.86653 0 6.99939C0 8.13231 0.267511 9.19691 0.755316 10.1389V10.1452C1.27056 11.1453 2.02402 12.0063 2.93977 12.6628C3.73978 13.2362 5.17426 14 7.14234 14C8.27412 14 9.2772 13.7959 10.1618 13.4135C10.8 13.1377 11.3654 12.7779 11.8773 12.3154C12.5537 11.7044 13.0834 10.9486 13.445 10.0791C13.8066 9.20958 14 8.22628 14 7.16022C14 6.66374 13.9501 6.15954 13.8656 5.70128V5.70134Z" fill="#1B1714"/>
<path d="M31.3122 10.6402L28.8475 11.9132C28.2936 12.1992 27.6461 11.7372 27.752 11.1312L28.2226 8.4349L26.2288 6.52523C25.7807 6.09595 26.028 5.34834 26.6473 5.25996L29.4029 4.86665L30.6354 2.41353C30.9123 1.86216 31.7125 1.86216 31.9896 2.41353L33.222 4.86665L35.9777 5.25996C36.597 5.34834 36.8443 6.09616 36.3962 6.52523L34.4022 8.4347L34.8728 11.131C34.9787 11.737 34.3312 12.1992 33.7773 11.913L31.3126 10.64L31.3122 10.6402Z" fill="#27C480"/>
<path d="M43.5877 10.6403L41.1231 11.9133C40.5691 12.1993 39.9217 11.7373 40.0275 11.1313L40.4982 8.43501L38.5044 6.52533C38.0563 6.09606 38.3036 5.34844 38.9229 5.26007L41.6785 4.86675L42.9109 2.41363C43.1878 1.86226 43.9881 1.86226 44.2652 2.41363L45.4976 4.86675L48.2532 5.26007C48.8725 5.34844 49.1198 6.09626 48.6717 6.52533L46.6777 8.4348L47.1484 11.1311C47.2542 11.7371 46.6068 12.1993 46.0528 11.9131L43.5881 10.6401L43.5877 10.6403Z" fill="#27C480"/>
<path d="M55.8632 10.6402L53.3985 11.9132C52.8445 12.1992 52.1971 11.7372 52.3029 11.1312L52.7736 8.4349L50.7798 6.52523C50.3317 6.09595 50.579 5.34834 51.1983 5.25996L53.9539 4.86665L55.1863 2.41353C55.4632 1.86216 56.2635 1.86216 56.5406 2.41353L57.773 4.86665L60.5286 5.25996C61.1479 5.34834 61.3953 6.09616 60.9472 6.52523L58.9531 8.4347L59.4238 11.131C59.5296 11.737 58.8822 12.1992 58.3282 11.913L55.8636 10.64L55.8632 10.6402Z" fill="#27C480"/>
<path d="M68.1388 10.6403L65.6742 11.9133C65.1202 12.1993 64.4727 11.7373 64.5786 11.1313L65.0493 8.43501L63.0554 6.52533C62.6073 6.09606 62.8547 5.34844 63.474 5.26007L66.2296 4.86675L67.462 2.41363C67.7389 1.86226 68.5392 1.86226 68.8162 2.41363L70.0487 4.86675L72.8043 5.26007C73.4236 5.34844 73.6709 6.09626 73.2228 6.52533L71.2288 8.4348L71.6994 11.1311C71.8053 11.7371 71.1579 12.1993 70.6039 11.9131L68.1392 10.6401L68.1388 10.6403Z" fill="#27C480"/>
<path d="M80.4141 10.6402L77.9495 11.9132C77.3955 12.1992 76.748 11.7372 76.8539 11.1312L77.3246 8.4349L75.3307 6.52523C74.8826 6.09595 75.1299 5.34834 75.7493 5.25996L78.5049 4.86665L79.7373 2.41353C80.0142 1.86216 80.8145 1.86216 81.0915 2.41353L82.324 4.86665L85.0796 5.25996C85.6989 5.34834 85.9462 6.09616 85.4981 6.52523L83.5041 8.4347L83.9747 11.131C84.0806 11.737 83.4332 12.1992 82.8792 11.913L80.4145 10.64L80.4141 10.6402Z" fill="#27C480"/>
<path d="M104.097 2.004V8.5L105.609 8.43V9.634H104.097V12H102.697V9.634H98.0069V8.43L102.529 2.004H104.097ZM99.6309 8.43H102.697V3.964L99.6309 8.43ZM107.276 12H106.646V10.25H108.032V12L107.682 13.148H106.926L107.276 12ZM112.51 8.486C110.41 8.486 109.15 7.226 109.15 5.112C109.15 3.054 110.452 1.836 112.636 1.836C114.96 1.836 116.332 3.628 116.332 6.652C116.332 10.124 114.932 12.182 112.552 12.182C110.452 12.182 109.206 11.132 109.206 9.34H110.606C110.606 10.432 111.334 11.076 112.552 11.076C114.036 11.076 114.904 9.466 114.904 7.296V7.226L114.876 7.212C114.414 8.01 113.546 8.486 112.51 8.486ZM110.55 5.126C110.55 6.554 111.306 7.394 112.58 7.394C113.854 7.394 114.596 6.582 114.596 5.21C114.596 3.768 113.854 2.928 112.58 2.928C111.306 2.928 110.55 3.74 110.55 5.126ZM119.565 4.72H120.979L123.079 10.264H123.107L125.207 4.72H126.621L123.723 12H122.463L119.565 4.72ZM130.526 4.552C132.738 4.552 134.054 5.966 134.054 8.374C134.054 10.768 132.738 12.182 130.526 12.182C128.314 12.182 126.998 10.768 126.998 8.374C126.998 5.966 128.314 4.552 130.526 4.552ZM128.426 8.374C128.426 10.082 129.196 11.076 130.526 11.076C131.842 11.076 132.64 10.082 132.64 8.374C132.64 6.666 131.842 5.658 130.526 5.658C129.196 5.658 128.426 6.666 128.426 8.374ZM136.487 12H135.115V4.72H136.543L136.347 5.784H136.389C136.767 5.014 137.579 4.552 138.587 4.552C140.267 4.552 141.233 5.588 141.233 7.338V12H139.861V7.59C139.861 6.4 139.273 5.7 138.279 5.7C137.159 5.7 136.487 6.596 136.487 8.094V12ZM148.377 12.182C146.207 12.182 144.835 10.992 144.835 9.116H146.235C146.235 10.236 147.075 10.95 148.377 10.95C149.679 10.95 150.533 10.012 150.533 8.57C150.533 7.198 149.707 6.316 148.433 6.316C147.551 6.316 146.739 6.932 146.375 7.898L145.059 7.772L145.661 2.004H151.429V3.236H146.865L146.585 6.106L146.613 6.12C147.131 5.56 147.971 5.182 148.741 5.182C150.701 5.182 151.933 6.512 151.933 8.57C151.933 10.768 150.547 12.182 148.377 12.182ZM159.197 1.836C161.479 1.836 162.823 3.026 162.823 5.056H161.381C161.381 3.81 160.569 3.068 159.197 3.068C157.867 3.068 157.083 3.67 157.083 4.678C157.083 6.904 162.977 5.742 162.977 9.172C162.977 11.062 161.633 12.182 159.365 12.182C156.761 12.182 155.221 10.866 155.221 8.654H156.663C156.663 10.096 157.685 10.95 159.393 10.95C160.737 10.95 161.535 10.32 161.535 9.228C161.535 6.96 155.641 8.22 155.641 4.72C155.641 2.914 156.957 1.836 159.197 1.836ZM164.98 9.9V5.812H163.776V4.678L164.98 4.748V3.194H166.352V4.72H168.088V5.812H166.352V9.816C166.352 10.684 166.688 11.062 167.444 11.062C167.836 11.062 168.116 11.006 168.34 10.894V12.028C168.102 12.126 167.808 12.182 167.416 12.182C165.778 12.182 164.98 11.468 164.98 9.9ZM175.804 9.704C175.51 11.258 174.292 12.182 172.556 12.182C170.4 12.182 169.126 10.754 169.126 8.332C169.126 5.952 170.386 4.552 172.528 4.552C174.614 4.552 175.832 5.868 175.832 8.08V8.612H170.582C170.652 10.208 171.394 11.146 172.626 11.146C173.564 11.146 174.236 10.614 174.432 9.704H175.804ZM170.624 7.702H174.404C174.376 6.372 173.676 5.588 172.528 5.588C171.464 5.588 170.778 6.358 170.624 7.702ZM178.301 12H176.929V4.72H178.441L178.245 5.63H178.287C178.665 4.944 179.421 4.552 180.345 4.552C180.751 4.552 181.157 4.608 181.451 4.706L181.255 5.868C180.975 5.756 180.625 5.7 180.317 5.7C179.057 5.7 178.301 6.652 178.301 8.276V12ZM183.79 12H182.418V4.72H183.846L183.65 5.784H183.692C184.07 5.014 184.882 4.552 185.89 4.552C187.57 4.552 188.536 5.588 188.536 7.338V12H187.164V7.59C187.164 6.4 186.576 5.7 185.582 5.7C184.462 5.7 183.79 6.596 183.79 8.094V12ZM196.29 9.704C195.996 11.258 194.778 12.182 193.042 12.182C190.886 12.182 189.612 10.754 189.612 8.332C189.612 5.952 190.872 4.552 193.014 4.552C195.1 4.552 196.318 5.868 196.318 8.08V8.612H191.068C191.138 10.208 191.88 11.146 193.112 11.146C194.05 11.146 194.722 10.614 194.918 9.704H196.29ZM191.11 7.702H194.89C194.862 6.372 194.162 5.588 193.014 5.588C191.95 5.588 191.264 6.358 191.11 7.702Z" fill="#1B1714"/>
</svg>
